<?xml version="1.0" ?><svg id="Layer_1" style="enable-background:new 0 0 204.088 233.819;" version="1.1" viewBox="0 0 204.088 233.819" xml:space="preserve" xmlns="http://www.w3.org/2000/svg" xmlns:xlink="http://www.w3.org/1999/xlink"><g><path d="M114.422,149.807c-0.462,2.57-4.608,25.203-7.636,27.757c-2.163,1.828-6.926,1.844-11.417,1.146v50.999h4.443v4.109h14.333   v-4.109h71.167v4.109h14.333v-4.109h4.442V122.418h-87.337C117.673,126.881,116.898,136.048,114.422,149.807z M189.951,175.151   c0,18.035-3.943,32.656-8.806,32.656c-4.864,0-8.806-14.621-8.806-32.656c0-18.037,3.943-32.656,8.806-32.656   C186.008,142.494,189.951,157.113,189.951,175.151z M149.133,142.494c7.39,0,14.205,2.458,19.677,6.596   c1.476-4.139,3.313-6.596,5.307-6.596c0.718,0,1.415,0.326,2.083,0.927c-3.858,3.471-6.723,16.354-6.723,31.729   c0,15.373,2.865,28.257,6.723,31.729c-0.668,0.601-1.365,0.928-2.083,0.928c-1.993,0-3.831-2.458-5.307-6.597   c-5.472,4.139-12.287,6.597-19.677,6.597c-18.036,0-32.656-14.621-32.656-32.656C116.476,157.113,131.097,142.494,149.133,142.494z   "/><path d="M149.133,201.834c6.911,0,13.218-2.644,17.963-6.972c-0.074-0.364-0.146-0.736-0.217-1.112   c-6.81-1.796-11.928-9.439-11.928-18.598c0-9.159,5.117-16.802,11.928-18.598c0.071-0.377,0.143-0.75,0.217-1.115   c-4.746-4.327-11.052-6.969-17.963-6.969c-14.712,0-26.684,11.969-26.684,26.68S134.421,201.834,149.133,201.834z"/><rect height="10.355" width="19.911" x="174.02" y="97.692"/><circle cx="164.365" cy="103.169" r="5.276"/><path d="M182.187,148.469c-3.393,0-6.154,11.969-6.154,26.68s2.761,26.685,6.154,26.685c3.392,0,6.154-11.975,6.154-26.685   S185.579,148.469,182.187,148.469z"/><ellipse cx="81.099" cy="52.053" rx="22.5" ry="22.5" transform="matrix(0.3748 -0.9271 0.9271 0.3748 2.4466 107.7347)"/><path d="M13.28,148.157l36.908,21.931l-9.346,48.714c-1.301,6.78,3.141,13.331,9.92,14.631c0.796,0.153,1.588,0.227,2.369,0.227   c5.876,0,11.114-4.163,12.262-10.147l9.997-52.108c2.092,1.199,4.545,2.224,6.845,2.979c0.168,0.055,0.347,0.112,0.532,0.17   c-1.063-0.599-2.095-1.276-3.044-2.047c-0.099-0.08-0.171-0.174-0.262-0.259c3.652,2.129,7.739,3.276,10.146,3.814   c5.144,1.149,11.572,1.589,14.189-0.624c3.028-2.553,7.173-25.186,7.636-27.757c3.094-17.192,3.539-27.237,1.326-29.859   c-0.111-0.131-0.246-0.255-0.37-0.383c0.449,0.23,0.865,0.471,1.252,0.721h90.447V87.536H95.369v24.487   c-1.22-0.003-2.301,0.155-3.232,0.477c-0.813,0.281-1.722,1.05-2.724,2.301l5.098,1.733c-0.193,0.741-0.399,1.481-0.617,2.219   l-20.858-7.092L52.797,79.635c-2.36-3.735-7.302-4.849-11.036-2.489c-3.735,2.36-4.85,7.302-2.489,11.036l21.75,34.417   c0.978,1.547,2.455,2.712,4.188,3.301l22.887,7.782c-0.325,0.702-0.654,1.401-0.985,2.094l-7.007-2.382   c-0.682,1.713-1.382,3.521-2.102,5.441c-0.519,1.383-3.31,8.886-5.401,15.82c-0.635-0.587-1.332-1.12-2.097-1.575l-35.227-20.933   c3.365-8.79,8.348-17.371,13.235-25.039L37.327,89.411c-1.47-2.325-1.946-5.084-1.341-7.768c0.605-2.685,2.22-4.972,4.546-6.441   c1.65-1.043,3.55-1.594,5.494-1.594c3.559,0,6.816,1.794,8.715,4.799l5.853,9.261c2.692-7.215,1.937-15.254-3.43-19.153   c-7.117-5.173-20.328-5.512-30.484,6.177C12.811,90.845,6.534,102.47,0.606,124.035C-2.242,138.673,5.443,144.686,13.28,148.157z    M155.505,93.709h42.812v18.717h-42.812V93.709z M145.009,100.233h5.25v5h-5.25V100.233z M135.571,100.233h5.25v5h-5.25V100.233z    M126.134,100.233h5.25v5h-5.25V100.233z M97.116,114.25c0,0,10.738,0.863,14.113,4.863c3.953,4.682-5.747,52.29-8.722,54.8   c-2.972,2.51-17.477,0.641-24.511-5.081C70.961,163.111,91.875,138.669,97.116,114.25z"/><path d="M108.859,123.47l-1.999,0.063c0.007,0.214,0.552,21.76-9.509,48.018l1.867,0.716   C109.422,145.637,108.866,123.689,108.859,123.47z"/><path d="M140.316,10.585c4.333-3.056,20.309,0.663,28.174,2.758c-0.919-0.833-1.877-1.569-2.847-2.01   c-3.667-1.667-6.833-3.833-13.667-3.5C145.143,8.167,144.476,0,140.143,0c-2.344,0-6.538,4.24-9.897,8.135   c1.6,0.35,3.17,0.926,4.604,1.455C137.07,10.41,139.366,11.256,140.316,10.585z"/><path d="M146.292,23.566c0.118-0.02,0.238-0.037,0.362-0.037c1.177,0,2.13,0.953,2.13,2.129V35.1c0,1.176-0.953,2.13-2.13,2.13   c-1.175,0-2.128-0.954-2.128-2.13v-9.442c0-0.119,0.016-0.234,0.035-0.348c-0.557,0.659-1.059,1.363-1.487,2.123   c-0.822,1.459-1.79,3.42-2.831,5.596V35.1c0,1.126-0.877,2.039-1.985,2.115c-4.343,9.177-7.985,16.384-11.305,19.519l2.675,24.099   h42.669l6.106-55.002c0.719-0.264,1.277-0.901,1.384-1.709l2.185-16.607c0.152-1.159-0.671-2.232-1.83-2.384   c-1.159-0.152-2.232,0.671-2.384,1.83l-1.255,9.539h-4.862c-0.011-0.012-0.023-0.023-0.034-0.034   C168.202,16.475,153.969,16.928,146.292,23.566z M140.243,72.374c0,1.176-0.953,2.129-2.129,2.129   c-1.175,0-2.129-0.953-2.129-2.129v-9.442c0-1.176,0.954-2.129,2.129-2.129c1.176,0,2.129,0.953,2.129,2.129V72.374z    M140.243,53.737c0,1.177-0.953,2.13-2.129,2.13c-1.175,0-2.129-0.953-2.129-2.13v-9.442c0-1.175,0.954-2.128,2.129-2.128   c1.176,0,2.129,0.953,2.129,2.128V53.737z M144.527,44.295c0-1.175,0.953-2.128,2.128-2.128c1.177,0,2.13,0.953,2.13,2.128v9.442   c0,1.177-0.953,2.13-2.13,2.13c-1.175,0-2.128-0.953-2.128-2.13V44.295z M148.834,72.374c0,1.176-0.953,2.129-2.13,2.129   c-1.175,0-2.128-0.953-2.128-2.129v-9.442c0-1.176,0.953-2.129,2.128-2.129c1.177,0,2.13,0.953,2.13,2.129V72.374z M157.375,72.374   c0,1.176-0.952,2.129-2.129,2.129c-1.175,0-2.129-0.953-2.129-2.129v-9.442c0-1.176,0.954-2.129,2.129-2.129   c1.176,0,2.129,0.953,2.129,2.129V72.374z M157.375,53.737c0,1.177-0.952,2.13-2.129,2.13c-1.175,0-2.129-0.953-2.129-2.13v-9.442   c0-1.175,0.954-2.128,2.129-2.128c1.176,0,2.129,0.953,2.129,2.128V53.737z M157.375,35.1c0,1.176-0.952,2.13-2.129,2.13   c-1.175,0-2.129-0.954-2.129-2.13v-9.442c0-1.176,0.954-2.129,2.129-2.129c1.176,0,2.129,0.953,2.129,2.129V35.1z M165.942,72.374   c0,1.176-0.952,2.129-2.129,2.129c-1.175,0-2.129-0.953-2.129-2.129v-9.442c0-1.176,0.954-2.129,2.129-2.129   c1.176,0,2.129,0.953,2.129,2.129V72.374z M165.942,53.737c0,1.177-0.952,2.13-2.129,2.13c-1.175,0-2.129-0.953-2.129-2.13v-9.442   c0-1.175,0.954-2.128,2.129-2.128c1.176,0,2.129,0.953,2.129,2.128V53.737z M165.942,35.1c0,1.176-0.952,2.13-2.129,2.13   c-1.175,0-2.129-0.954-2.129-2.13v-9.442c0-1.176,0.954-2.129,2.129-2.129c1.176,0,2.129,0.953,2.129,2.129V35.1z"/><path d="M122.975,9.212c0.449-0.325,0.912-0.583,1.385-0.787l-0.193-1.464c-0.152-1.159-1.225-1.982-2.384-1.83   c-1.159,0.152-1.982,1.225-1.83,2.384l0.584,4.441C121.241,10.803,122.049,9.883,122.975,9.212z"/><path d="M119.197,36.897c0.606,16.987,3.086,19.317,4.125,19.531c3.328,0.663,9.735-12.869,13.556-20.968   c1.645-3.486,3.198-6.779,4.455-9.009c4.813-8.539,16.947-11.02,24.564-11.723c-9.833-2.496-21.522-4.558-24.427-2.509   c-1.811,1.279-4.361,0.337-7.313-0.752c-2.149-0.793-4.48-1.654-6.613-1.654c-1.221,0-2.376,0.282-3.396,1.02   C120.343,13.586,118.678,22.355,119.197,36.897z"/></g></svg>