<?xml version="1.0" ?><!DOCTYPE svg  PUBLIC '-//W3C//DTD SVG 1.1//EN'  'http://www.w3.org/Graphics/SVG/1.1/DTD/svg11.dtd'><svg enable-background="new 0 0 100 100" height="100px" id="Layer_1" version="1.1" viewBox="0 0 100 100" width="100px" xml:space="preserve" xmlns="http://www.w3.org/2000/svg" xmlns:xlink="http://www.w3.org/1999/xlink"><g><path d="M34.607,34.418l-3.57-9.18l-3.57,9.182l-9.178,3.57l9.178,3.57l3.57,9.178l3.57-9.178l9.177-3.57L34.607,34.418z    M32.289,39.242l-1.252,3.221l-1.252-3.221l-3.221-1.252l3.221-1.254l1.252-3.221l1.252,3.219l3.222,1.254L32.289,39.242z"/><path d="M23.403,49.059l-2.935,4.383l-4.383,2.936l4.382,2.936l2.936,4.383l2.936-4.381l4.382-2.938l-4.382-2.936L23.403,49.059z    M24.176,57.152l-0.773,1.152l-0.773-1.154l-1.153-0.773l1.154-0.773l0.772-1.154l0.773,1.154l1.155,0.773L24.176,57.152z"/><path d="M92.767,57.012c-1.384-0.262-2.618-0.678-3.741-1.213V15h-84v60h38v7h-14v3h36v-3h-14v-7h1.68   c1.211,1.693,2.635,3.266,4.394,4.633l0.846,0.656l4.666-3.047c2.258,2.02,5.03,3.551,8.657,4.232l1.059,0.199l0.526-0.939   c4.397-7.836,7.684-9.895,11.161-12.072c3.011-1.887,6.124-3.836,9.731-9.355l1.229-1.879L92.767,57.012z M13.026,65V23h68v24.723   c-0.965-1.613-1.858-3.328-2.763-5.072c-3.617-6.977-7.357-14.189-16.613-15.932l-0.436-0.08l-0.41,0.168   c-4.577,1.875-6.897,4.047-9.916,7.148c-2.143,2.201-4.061,4.912-5.915,7.531c-1.789,2.529-3.639,5.143-5.619,7.176l-1.95,2.004   l0.019,0.002l-0.039,0.027l1.659,1.289c4.229,3.287,6.311,8.008,8.478,13.016H13.026z M50.368,64.029   c-1.758-4.068-3.565-8.242-6.601-11.689c5.308,2.469,8.037,7.705,10.889,13.205c1.722,3.318,3.478,6.686,5.836,9.498l-2.368,1.547   C54.375,73.297,52.424,68.785,50.368,64.029z M82.421,66.119c-3.501,2.193-7.118,4.461-11.63,12.18   c-7.082-1.809-10.189-7.805-13.473-14.135c-3.274-6.314-6.649-12.824-14.125-15.293c1.485-1.775,2.873-3.736,4.228-5.65   c1.788-2.527,3.638-5.141,5.617-7.174c2.731-2.807,4.638-4.645,8.489-6.291c7.509,1.615,10.698,7.768,14.072,14.275   c3.316,6.395,6.736,12.99,14.415,15.385C87.294,63.066,84.918,64.555,82.421,66.119z"/></g></svg>