<?xml version="1.0" ?><svg id="Glyph" style="enable-background:new 0 0 32 32;" version="1.1" viewBox="0 0 32 32" xml:space="preserve" xmlns="http://www.w3.org/2000/svg" xmlns:xlink="http://www.w3.org/1999/xlink"><path d="M23,24c0,0.276-0.224,0.5-0.5,0.5h-2c-0.276,0-0.5-0.224-0.5-0.5v-9h3V24z"/><path d="M24.5,18.5v7.2c0,0.166-0.134,0.3-0.3,0.3h-5.4c-0.166,0-0.3-0.134-0.3-0.3v-7.2H4.115l0.743,9.653  C4.938,29.195,5.807,30,6.852,30h18.296c1.045,0,1.914-0.805,1.994-1.847l0.743-9.653H24.5z M8.5,22.75  c0,0.414-0.336,0.75-0.75,0.75S7,23.164,7,22.75v-1C7,21.336,7.336,21,7.75,21s0.75,0.336,0.75,0.75V22.75z M10.5,26.75  c0,0.414-0.336,0.75-0.75,0.75S9,27.164,9,26.75v-1C9,25.336,9.336,25,9.75,25s0.75,0.336,0.75,0.75V26.75z M12.5,22.75  c0,0.414-0.336,0.75-0.75,0.75S11,23.164,11,22.75v-1c0-0.414,0.336-0.75,0.75-0.75s0.75,0.336,0.75,0.75V22.75z M14.5,26.75  c0,0.414-0.336,0.75-0.75,0.75S13,27.164,13,26.75v-1c0-0.414,0.336-0.75,0.75-0.75s0.75,0.336,0.75,0.75V26.75z M16.5,22.75  c0,0.414-0.336,0.75-0.75,0.75S15,23.164,15,22.75v-1c0-0.414,0.336-0.75,0.75-0.75s0.75,0.336,0.75,0.75V22.75z"/><path d="M18.5,17h-16C2.224,17,2,16.776,2,16.5v-1C2,15.224,2.224,15,2.5,15h16V17z"/><path d="M29.5,15c0.276,0,0.5,0.224,0.5,0.5v1c0,0.276-0.224,0.5-0.5,0.5h-5v-2H29.5z"/><path d="M26,12.25V14H8.5C7.119,14,6,12.881,6,11.5C6,10.119,7.119,9,8.5,9H26v1.75H8.5c-0.414,0-0.75,0.336-0.75,0.75  c0,0.414,0.336,0.75,0.75,0.75H26z"/><path d="M26,6.25V8H8.5C7.119,8,6,6.881,6,5.5C6,4.119,7.119,3,8.5,3H26v1.75H8.5c-0.414,0-0.75,0.336-0.75,0.75  c0,0.414,0.336,0.75,0.75,0.75H26z"/></svg>