<?xml version="1.0" encoding="iso-8859-1"?>
<!-- Uploaded to: SVG Repo, www.svgrepo.com, Generator: SVG Repo Mixer Tools -->
<svg fill="#000000" height="800px" width="800px" version="1.1" id="Layer_1" xmlns="http://www.w3.org/2000/svg" xmlns:xlink="http://www.w3.org/1999/xlink" 
	 viewBox="0 0 299.044 299.044" xml:space="preserve">
<g id="XMLID_187_">
	<g>
		<g>
			<path d="M294.274,173.401c-1.608-1.731-3.865-2.722-6.228-2.722H273.87v-43.354c0-12.786-10.402-23.188-23.188-23.188
				c-12.786,0-23.188,10.402-23.188,23.188v8.224c0,3.59,2.91,6.5,6.5,6.5s6.5-2.91,6.5-6.5v-8.224
				c0-5.618,4.57-10.188,10.188-10.188c5.618,0,10.188,4.57,10.188,10.188v43.354H107.425c0.001,0.068,0.007,0.135,0.007,0.203
				c0,4.213,0,98.996,0,100.851c6.85,1.821,13.987,2.778,21.258,2.778h79.742c9.027,0,17.857-1.483,26.189-4.268l15.558,17.365
				c4.131,4.61,11.217,5.002,15.831,0.869c4.612-4.131,5-11.22,0.869-15.831l-11.464-12.796
				c9.743-6.721,18.088-15.545,24.276-26.064c9.46-16.084,15.415-34.412,16.838-53.976
				C296.7,177.453,295.883,175.132,294.274,173.401z"/>
			<path d="M118.36,134.772l11.69-8.794c-0.492-2.264-1.256-4.779-2.011-7.259c-1.48-4.859-3.158-10.366-3.472-15.929
				c-0.046-0.805-0.057-1.596-0.043-2.377l-1.547,1.164l-0.083-16.541c-0.078-15.476-12.759-27.964-28.104-27.964
				c-7.772,0-55.981,0-63.756,0c-15.454,0-28.027,12.575-28.104,27.964l-0.437,87.247c-0.033,6.559,5.257,11.903,11.816,11.935
				c0.02,0,0.04,0,0.061,0c6.531,0,11.842-5.277,11.875-11.816c0.019-3.832,0.419-83.418,0.438-87.248c0-0.001,0-0.001,0-0.001
				c0.006-1.264,1.035-2.285,2.299-2.281c1.264,0.003,2.287,1.029,2.287,2.293c0.001,28.377,0.005,186.638,0.005,199.627
				c0,7.874,6.379,14.251,14.251,14.251c7.898,0,14.251-6.404,14.251-14.251V170.882h6.153v113.911
				c0,7.884,6.393,14.251,14.251,14.251c7.872,0,14.251-6.378,14.251-14.251c0-215.237-0.253-63.438-0.259-199.841
				c0-1.373,1.113-2.487,2.487-2.487s2.488,1.113,2.488,2.486c0,0.067-0.001,0.135-0.004,0.204l0.202,40.186
				c0.025,4.942,3.115,9.394,7.828,11.104C110.934,137.809,115.144,137.192,118.36,134.772z"/>
			<path d="M63.013,49.226c13.538,0,24.613-10.982,24.613-24.613C87.626,11.019,76.606,0,63.013,0S38.4,11.019,38.4,24.613
				C38.4,38.222,49.457,49.226,63.013,49.226z"/>
			<path d="M136.244,134.774c-4.766,11.747-0.66,20.932,6.012,21.002c7.634,0.081,13.169,1.999,18.141,1.999
				c2.648,0,5.136-0.545,7.697-2.201c7.366-4.766,0.162-16.724-3.737-31.362c-3.9-14.639,2.925-22.154-2.709-38.459
				c-1.936-5.603-5.16-7.6-8.733-7.6c-6.824,0-14.913,7.286-17.7,10.647C123.302,103.164,141.011,123.027,136.244,134.774z"/>
		</g>
	</g>
</g>
</svg>