<?xml version="1.0" encoding="iso-8859-1"?>
<!-- Uploaded to: SVG Repo, www.svgrepo.com, Generator: SVG Repo Mixer Tools -->
<svg fill="#000000" height="800px" width="800px" version="1.1" id="Layer_1" xmlns="http://www.w3.org/2000/svg" xmlns:xlink="http://www.w3.org/1999/xlink" 
	 viewBox="0 0 298.113 298.113" xml:space="preserve">
<g id="XMLID_137_">
	<g>
		<g>
			<circle cx="55.182" cy="64.648" r="22.413"/>
			<path d="M243.332,29.636l-5.583-5.761c-3.65-3.766-9.661-3.86-13.426-0.21l-29.325,28.421c-3.52,3.411-3.83,8.884-0.876,12.659
				c-2.867,2.735-58.823,56.12-64.385,61.426c-1.563-1.002-3.397-1.624-5.385-1.705l-36.668-1.49l-30.53-18.307l26.551,7.875
				c0-10.189-7.236-16.174-15.141-16.174h-27c-8.362,0-15.141,6.779-15.141,15.141l-11.731,99.481
				c-0.467,3.402,2.18,6.433,5.609,6.433h6.047L26.157,285.1c-0.02,7.167,5.773,12.994,12.94,13.014c0.013,0,0.025,0,0.038,0
				c7.15,0,12.956-5.786,12.977-12.941l0.192-67.748h5.678l0.005,67.712c0.001,7.167,5.811,12.977,12.979,12.977
				c7.167-0.001,12.977-5.811,12.977-12.979l-0.005-67.71h4.411c3.392,0,6.026-2.968,5.621-6.337l-6.801-56.607l-3.518-0.143
				c-3.517-0.143-6.74,0.159-9.799-2.928c-3.093-3.135-24.924-25.258-27.819-28.193l32.896,19.727
				c1.553,0.931,3.314,1.457,5.123,1.531l25.419,1.033c-2.48,2.366-2.146,5.316-0.466,7.077c1.829,1.918,4.868,1.989,6.785,0.16
				l7.017-6.695c7.246,0.294,11.688-4.765,11.914-10.34c0.014-0.343,0.008-0.681-0.01-1.017
				c2.393-2.283,63.664-60.737,66.075-63.038c3.676,3.374,9.386,3.344,13.015-0.174l29.325-28.421
				C246.888,39.413,246.982,33.402,243.332,29.636z"/>
			<path d="M170.815,27.78c0.112,0,0.222-0.01,0.331-0.017c0.865,2.637,3.344,4.543,6.271,4.543c3.646,0,6.602-2.956,6.602-6.602
				c0-2.082-0.966-3.936-2.471-5.145c1.192-1.152,1.936-2.764,1.936-4.553c0-3.498-2.836-6.335-6.335-6.335
				c-3.499,0-6.335,2.836-6.335,6.335c0,0.306,0.029,0.605,0.071,0.9c-0.024,0-0.047-0.004-0.071-0.004
				c-3.004,0-5.439,2.435-5.439,5.439C165.376,25.344,167.811,27.78,170.815,27.78z"/>
			<path d="M250.722,77.873c-0.234-0.043-0.466-0.062-0.697-0.072c0.004-0.018,0.009-0.036,0.013-0.054
				c0.422-2.293-1.095-4.493-3.386-4.914c-2.293-0.422-4.493,1.095-4.915,3.387c-0.016,0.085-0.023,0.17-0.034,0.255
				c-2.134,0.29-3.937,1.914-4.348,4.147c-0.512,2.783,1.329,5.453,4.111,5.965c1.589,0.292,3.139-0.185,4.274-1.163
				c0.712,1.071,1.838,1.866,3.203,2.117c2.67,0.491,5.232-1.275,5.724-3.945C255.158,80.927,253.392,78.365,250.722,77.873z"/>
			<path d="M276.975,0h-73.693c-3.589,0-6.5,2.91-6.5,6.5s2.911,6.5,6.5,6.5h67.193v67.194c0,3.59,2.911,6.5,6.5,6.5
				s6.5-2.91,6.5-6.5V6.5C283.475,2.91,280.564,0,276.975,0z"/>
		</g>
	</g>
</g>
</svg>