<svg xmlns="http://www.w3.org/2000/svg" viewBox="0 0 512 640" x="0px" y="0px"><path d="M383.767,324a46,46,0,1,0,46,46A46,46,0,0,0,383.767,324Zm0,60a14,14,0,1,1,14-14A14.015,14.015,0,0,1,383.766,384Z"/><path d="M88,324a46,46,0,1,0,46,46A46,46,0,0,0,88,324Zm0,60a14,14,0,1,1,14-14A14.015,14.015,0,0,1,88,384Z"/><path d="M112.772,250.678V182H92.2a32.136,32.136,0,0,0-26.907,14.564L13.557,275.779l74.211-.068A25.067,25.067,0,0,0,112.772,250.678Z"/><path d="M128.772,250.678a41.089,41.089,0,0,1-40.988,41.033L8,291.784V370H25.408a62,62,0,0,1,124,0H162V182H128.772Z"/><path d="M275.186,217.383h10.383a8,8,0,0,1,7.529-5.316h87.167a8,8,0,0,1,7.529,5.316h11.019L337,184.511Z"/><path d="M177.408,96V370H321.174a62,62,0,0,1,124,0h58.234V96ZM422.6,223.314a13.1,13.1,0,0,1-12.889,10.069H388.265v50.906a8,8,0,0,1-8,8H293.1a8,8,0,0,1-8-8V233.383H264.292a13.283,13.283,0,0,1-6.238-25.01l70.969-37.741a11.621,11.621,0,0,1,9.246-10.929,6.451,6.451,0,0,0,5-7.771,6.354,6.354,0,0,0-4.8-4.8,6.442,6.442,0,0,0-7.894,6.268,8,8,0,0,1-16,0,22.442,22.442,0,1,1,34.03,19.158l67.339,35.81A13.1,13.1,0,0,1,422.6,223.314Z"/><rect x="301.098" y="228.067" width="71.167" height="48.221"/><text x="0" y="527" fill="#000000" font-size="5px" font-weight="bold" font-family="'Helvetica Neue', Helvetica, Arial-Unicode, Arial, Sans-serif">Created by Koson Rattanaphan</text><text x="0" y="532" fill="#000000" font-size="5px" font-weight="bold" font-family="'Helvetica Neue', Helvetica, Arial-Unicode, Arial, Sans-serif">from the Noun Project</text></svg>