<svg xmlns="http://www.w3.org/2000/svg" xmlns:xlink="http://www.w3.org/1999/xlink" version="1.1" x="0px" y="0px" viewBox="0 0 504 499.95" style="enable-background:new 0 0 504 399.96;" xml:space="preserve"><g><path d="M420,107.99c-13.233,0-24,10.766-24,24c0,13.228,10.767,23.99,24,23.99s24-10.762,24-23.99   C444,118.756,433.233,107.99,420,107.99z"/><path d="M248.341,260.835c-2.03,0.872-2.968,3.225-2.096,5.254c1.591,3.703,3.551,7.267,5.822,10.587   c5.383,7.882,12.442,14.412,20.983,19.407c0.635,0.371,1.33,0.548,2.016,0.548c1.375,0,2.713-0.71,3.457-1.981   c1.115-1.907,0.474-4.357-1.434-5.473c-7.511-4.393-13.707-10.116-18.418-17.015c-1.981-2.897-3.689-6.003-5.077-9.231   C252.724,260.901,250.372,259.96,248.341,260.835z"/><path d="M258.38,296.247c-7.511-4.393-13.706-10.119-18.418-17.024c-1.985-2.903-3.693-6.009-5.076-9.23   c-0.873-2.03-3.223-2.969-5.254-2.098c-2.03,0.872-2.969,3.224-2.098,5.254c1.588,3.697,3.547,7.26,5.822,10.587   c5.382,7.889,12.442,14.422,20.984,19.418c0.635,0.371,1.33,0.548,2.016,0.548c1.375,0,2.713-0.71,3.457-1.981   C260.929,299.813,260.287,297.362,258.38,296.247z"/><path d="M321.799,172.96c-11.239-1.79-22.652-2.218-33.922-1.276c-9.178,0.767-18.318,2.438-27.168,4.971   c-2.124,0.608-3.353,2.822-2.745,4.946c0.503,1.756,2.104,2.901,3.844,2.901c0.364,0,0.734-0.05,1.103-0.155   c8.35-2.389,16.974-3.967,25.633-4.69c10.628-0.888,21.394-0.484,31.998,1.205c2.183,0.35,4.231-1.14,4.579-3.321   S323.98,173.307,321.799,172.96z"/><path d="M281.47,160.946c10.673-0.885,21.441-0.479,32,1.204c0.214,0.034,0.426,0.05,0.635,0.05c1.932,0,3.632-1.402,3.945-3.371   c0.348-2.182-1.139-4.232-3.32-4.58c-11.192-1.784-22.604-2.214-33.92-1.276c-2.202,0.182-3.839,2.115-3.656,4.316   C277.335,159.493,279.28,161.124,281.47,160.946z"/><path d="M368.59,181.91c2.074,0,4.021,0.686,5.63,1.983c11.827,9.537,23.305,19.736,34.112,30.314   c8.799,8.611,17.286,17.579,25.23,26.66c4.24,4.835,9.654,8.509,15.607,10.606c0.648,0.238,1.355,0.469,2.105,0.688l47.61,13.81   c1.207,0.351,2.51,0.112,3.517-0.644c1.006-0.756,1.598-1.94,1.598-3.198V28.34C504,12.713,491.287,0,475.66,0H28.34   C12.713,0,0,12.713,0,28.34v343.28c0,15.627,12.713,28.34,28.34,28.34h447.32c15.627,0,28.34-12.713,28.34-28.34v-30.34   c0-1.775-1.17-3.338-2.873-3.838l-5.361-1.574l-61.201-17.76c-1.557-0.452-3.139-0.8-4.691-1.032   c-6.314-0.963-12.893-0.267-19.034,2.018c-2.808,1.05-5.752,1.922-8.739,2.59c-0.556,0.122-1.103,0.235-1.651,0.342   c-9.4,1.847-19.514,1.333-29.243-1.487l-69.24-20.099c-2.08-0.604-3.791-1.987-4.817-3.893c-1.025-1.903-1.237-4.093-0.597-6.161   c1.257-4.049,5.754-6.39,10.036-5.261l31.051,9.014l1.252,0.364l2.11,0.609c2.12,0.615,4.34-0.611,4.952-2.733   c0.613-2.122-0.61-4.34-2.733-4.952l-34.149-9.918c-0.072-0.022-0.146-0.042-0.221-0.062c-0.016-0.005-0.032-0.01-0.048-0.014   c-0.02-0.006-0.041-0.008-0.062-0.014l-26.973-7.831c-2.053-0.597-3.751-1.958-4.782-3.831c-1.03-1.873-1.271-4.033-0.676-6.079   c0.992-3.402,4.154-5.778,7.69-5.778c0.712,0,1.424,0.097,2.117,0.288c0.036,0.012,0.071,0.022,0.107,0.033l7.286,2.115   l40.544,11.774c0.024,0.007,0.049,0.009,0.073,0.016l5.877,1.706c2.124,0.611,4.341-0.605,4.957-2.727   c0.615-2.122-0.605-4.341-2.727-4.957l-50.031-14.522l-3.723-1.081c-0.026-0.008-0.053-0.016-0.079-0.024   c-0.003-0.001-0.005-0.002-0.008-0.003l-22.987-6.669c-4.231-1.231-6.679-5.681-5.455-9.915c0.984-3.395,4.142-5.765,7.678-5.765   c0.759,0,1.505,0.106,2.236,0.322l19.21,5.569c0.001,0,0.002,0,0.003,0.001l2.875,0.837c1.057,0.308,2.106,0.614,3.147,0.914   l1.971,0.573c0.011,0.003,0.023,0.007,0.034,0.01l5.739,1.665c0.002,0.001,0.004,0.001,0.006,0.001   c0.002,0.001,0.004,0.001,0.005,0.002l0.459,0.132c0.458,0.13,0.92,0.262,1.426,0.414c0.001,0,0.002,0.001,0.004,0.001l3.76,1.091   c0.003,0.001,0.006,0.001,0.009,0.002l3.705,1.076c0.001,0,0.002,0.001,0.004,0.001l9.219,2.68   c7.237,2.105,14.519,4.219,22.256,6.463l6.437,1.868c0.001,0,0.002,0,0.003,0l4.239,1.229c0.372,0.107,0.747,0.159,1.116,0.159   c1.734,0,3.332-1.138,3.84-2.887c0.615-2.122-0.606-4.341-2.728-4.956l-4.237-1.228c-0.001,0-0.002-0.001-0.002-0.001l-6.438-1.867   c-7.735-2.244-15.015-4.356-22.243-6.46l-3.678-1.069c-1.044-0.307-2.091-0.609-3.14-0.913l-7.764-2.254   c-0.605-0.177-1.205-0.351-1.781-0.516l-0.348-0.101c-0.002-0.001-0.004-0.001-0.006-0.001c-0.483-0.146-0.972-0.285-1.457-0.424   l-0.427-0.122c-1.264-0.37-2.541-0.738-3.815-1.106l-1.986-0.576c0,0-0.001,0-0.001,0l-1.954-0.569c-0.001,0-0.001,0-0.002-0.001   l-3.99-1.16c-0.001,0-0.002,0-0.003-0.001c-0.366-0.109-0.735-0.216-1.106-0.322l-0.923-0.269   c-2.082-0.604-3.793-1.986-4.818-3.893c-1.022-1.902-1.231-4.089-0.586-6.164c1.279-4.137,5.874-6.468,10.243-5.189l84.13,24.42   c1.676,0.484,3.476-0.17,4.443-1.623c0.969-1.453,0.883-3.366-0.212-4.727l-0.572-0.712c-7.468-9.281-14.937-18.564-22.41-27.862   c-2.965-3.675-2.57-9.077,0.897-12.296C364.104,182.771,366.295,181.91,368.59,181.91z M344,8h131.66   C486.876,8,496,17.125,496,28.34v228.465l-40.504-11.748l13.224-45.58c3.16-10.869-3.117-22.285-13.995-25.448l-12.98-3.768   c5.069-2.868,9.468-6.684,12.983-11.196l16.949,10.89c0.669,0.43,1.418,0.635,2.158,0.635c1.316,0,2.605-0.649,3.369-1.838   c1.194-1.858,0.655-4.333-1.203-5.527l-16.958-10.895c3.179-6.118,4.956-13.048,4.956-20.339c0-7.33-1.811-14.241-4.995-20.325   l16.997-10.92c1.858-1.194,2.397-3.669,1.203-5.527c-1.194-1.858-3.669-2.397-5.527-1.203l-17.01,10.929   C447.38,95.624,436.432,89.306,424,88.18V67.99c0-2.209-1.791-4-4-4s-4,1.791-4,4v20.19c-12.432,1.126-23.38,7.444-30.667,16.763   l-17.01-10.929c-1.858-1.196-4.335-0.655-5.527,1.203c-1.194,1.858-0.655,4.333,1.203,5.527l16.997,10.92   C377.811,117.75,376,124.661,376,131.99c0,7.318,1.796,14.384,5.163,20.686L344,141.889V8z M429.509,166.709l-36.103-10.48   c-6.068-6.647-9.406-15.21-9.406-24.24c0-19.851,16.149-36,36-36s36,16.149,36,36C456,148.318,445.157,162.445,429.509,166.709z    M285.31,36c13.233,0,24,10.762,24,23.99c0,13.234-10.767,24-24,24c-6.892,0-13.386-3.006-17.88-8H276   c4.28,0,8.3-1.663,11.325-4.688C290.34,68.273,292,64.256,292,59.99c0-8.817-7.178-15.99-16-15.99h-8.57   C271.924,39.006,278.418,36,285.31,36z M215.615,312.861l52.05,15.108H44V215.98h178.358l-20.739,71.424   C198.461,298.279,204.738,309.699,215.615,312.861z M44,207.98v-8h183.004l-2.323,8H44z M44,191.98v-79.99h256v17.127   l-28.623-8.308c-5.268-1.532-10.819-0.918-15.628,1.727c-4.808,2.645-8.296,7.003-9.821,12.269l-16.601,57.175H44z M68,67.99   c-4.411,0-8-3.589-8-8c0-2.137,0.83-4.144,2.338-5.652S65.856,52,68,52h208c4.411,0,8,3.584,8,7.99   c0,2.136-0.833,4.149-2.338,5.661c-1.509,1.508-3.52,2.339-5.662,2.339H68z M34.69,59.99c0-13.228,10.767-23.99,24-23.99   c6.892,0,13.386,3.006,17.88,8H68c-4.28,0-8.3,1.663-11.319,4.682C53.662,51.701,52,55.717,52,59.99c0,8.822,7.178,16,16,16h8.57   c-4.494,4.994-10.988,8-17.88,8C45.457,83.99,34.69,73.224,34.69,59.99z M300,359.96H44v-8h256V359.96z M300,343.96H44v-7.99   h251.226l4.774,1.386V343.96z M432.073,325.725c0.087,0.024,0.175,0.042,0.262,0.067l61.188,17.756l2.477,0.728v27.345   c0,11.216-9.124,20.34-20.34,20.34H344v-41.833l54.969,15.956c1.901,0.55,3.817,0.812,5.704,0.812   c8.909-0.001,17.142-5.844,19.749-14.81L432.073,325.725z M355.293,201.646c5.009,6.231,10.018,12.459,15.026,18.686L298.38,199.45   c-8.534-2.492-17.561,2.224-20.119,10.502c-0.881,2.833-0.943,5.774-0.249,8.572l-5.9-1.711c-1.449-0.427-2.957-0.644-4.481-0.644   c-7.075,0-13.392,4.744-15.362,11.54c-2.447,8.468,2.445,17.359,10.908,19.822l9.779,2.837c-1.994,1.903-3.521,4.314-4.326,7.073   c-1.193,4.103-0.714,8.426,1.349,12.173c2.061,3.744,5.454,6.463,9.559,7.656l13.678,3.971c-1.956,1.811-3.477,4.106-4.305,6.775   c-1.28,4.138-0.856,8.514,1.194,12.322c2.052,3.811,5.472,6.574,9.631,7.782l69.242,20.1c10.953,3.175,22.37,3.746,33.003,1.655   c0.604-0.116,1.217-0.243,1.853-0.384c3.357-0.75,6.658-1.728,9.803-2.904c3.372-1.254,6.903-1.891,10.413-1.918l-7.308,25.183   c-1.929,6.633-8.905,10.466-15.544,8.545l-183.349-53.22c-6.64-1.931-10.474-8.903-8.545-15.544l44.31-152.602   c0.932-3.214,3.06-5.873,5.994-7.487c2.936-1.615,6.322-1.99,9.54-1.054l183.348,53.219c6.641,1.931,10.475,8.898,8.545,15.534   l-13.052,44.984c-3.158-1.67-6.021-3.912-8.406-6.633c-8.077-9.231-16.708-18.352-25.653-27.105   c-10.99-10.757-22.66-21.128-34.687-30.825c-3.003-2.422-6.786-3.756-10.651-3.756c-4.319,0-8.443,1.619-11.611,4.558   C350.442,184.535,349.704,194.719,355.293,201.646z"/></g><text x="0" y="414.96" fill="#000000" font-size="5px" font-weight="bold" font-family="'Helvetica Neue', Helvetica, Arial-Unicode, Arial, Sans-serif">Created by Amethyst Studio</text><text x="0" y="419.96" fill="#000000" font-size="5px" font-weight="bold" font-family="'Helvetica Neue', Helvetica, Arial-Unicode, Arial, Sans-serif">from the Noun Project</text></svg>