<?xml version="1.0" encoding="iso-8859-1"?>
<!-- Uploaded to: SVG Repo, www.svgrepo.com, Generator: SVG Repo Mixer Tools -->
<!DOCTYPE svg PUBLIC "-//W3C//DTD SVG 1.1//EN" "http://www.w3.org/Graphics/SVG/1.1/DTD/svg11.dtd">
<svg fill="#000000" height="800px" width="800px" version="1.1" id="Capa_1" xmlns="http://www.w3.org/2000/svg" xmlns:xlink="http://www.w3.org/1999/xlink" 
	 viewBox="0 0 60 60" xml:space="preserve">
<path d="M59,12c-0.553,0-1,0.447-1,1v1h-1v-3h-3V7h-6v4h-2v-1c0-1.654-1.346-3-3-3s-3,1.346-3,3v1h-2v-1c0-1.654-1.346-3-3-3
	s-3,1.346-3,3v1h-2v-1c0-1.654-1.346-3-3-3s-3,1.346-3,3v1h-2v-1c0-1.654-1.346-3-3-3s-3,1.346-3,3v1h-2v-1c0-1.654-1.346-3-3-3
	s-3,1.346-3,3v1H6V7H0v46h6v-4h2v1c0,1.654,1.346,3,3,3s3-1.346,3-3v-1h2v1c0,1.654,1.346,3,3,3s3-1.346,3-3v-1h2v1
	c0,1.654,1.346,3,3,3s3-1.346,3-3v-1h2v1c0,1.654,1.346,3,3,3s3-1.346,3-3v-1h2v1c0,1.654,1.346,3,3,3s3-1.346,3-3v-1h2v4h6v-1h3v-3
	h2c0.553,0,1-0.447,1-1s-0.447-1-1-1h-2v-3h-3V19h3v-3h1v1c0,0.553,0.447,1,1,1s1-0.447,1-1v-4C60,12.447,59.553,12,59,12z M6,47V13
	h2v34H6z M14,47V13h2v34H14z M22,47V13h2v34H22z M30,47V13h2v34H30z M38,47V13h2v34H38z M46,47V13h2v34H46z"/>
</svg>