<?xml version="1.0" encoding="iso-8859-1"?>
<!-- Uploaded to: SVG Repo, www.svgrepo.com, Generator: SVG Repo Mixer Tools -->
<svg fill="#000000" version="1.1" id="Layer_1" xmlns="http://www.w3.org/2000/svg" xmlns:xlink="http://www.w3.org/1999/xlink" 
	 viewBox="0 0 512.003 512.003" xml:space="preserve">
<g>
	<g>
		<g>
			<path d="M439.078,146.128l-37.152-64.35l-39.218,67.93h0.096c-3.698,6.54-5.816,14.089-5.816,22.138
				c0,24.895,20.181,45.077,45.077,45.077c24.895,0,45.077-20.181,45.077-45.077C447.144,162.282,444.158,153.422,439.078,146.128z"
				/>
			<path d="M252.644,217.548h-3.385H122.615h-3.385c-29.978,0-54.368,24.389-54.368,54.367v185.72
				c0,29.977,24.39,54.367,54.368,54.367h133.414c29.978,0,54.368-24.389,54.368-54.367V271.914
				C307.013,241.937,282.623,217.548,252.644,217.548z"/>
			<path d="M135.982,42.229h28.84v61.31h42.229v-61.31h195.015c11.661,0,21.115-9.454,21.115-21.115S413.727,0,402.066,0H135.982
				c-11.661,0-21.115,9.454-21.115,21.115S124.321,42.229,135.982,42.229z"/>
			<rect x="136.697" y="131.698" width="98.491" height="57.705"/>
		</g>
	</g>
</g>
</svg>