<?xml version="1.0" encoding="utf-8"?>

<!-- Uploaded to: SVG Repo, www.svgrepo.com, Generator: SVG Repo Mixer Tools -->
<svg version="1.1" id="Icons" xmlns="http://www.w3.org/2000/svg" xmlns:xlink="http://www.w3.org/1999/xlink" 
	 viewBox="0 0 32 32" xml:space="preserve">
<style type="text/css">
	.st0{fill:none;stroke:#000000;stroke-width:2;stroke-linecap:round;stroke-linejoin:round;stroke-miterlimit:10;}
</style>
<path d="M24,2H10C7.4,2,5.2,4.4,4.3,8H4c-1.2,0-2,1.3-2,3s0.8,3,2,3h0.3c0.8,3.6,3.1,6,5.7,6c1.6,0,2.9-0.8,4-2.3V29
	c0,0.6,0.4,1,1,1h14c0.6,0,1-0.4,1-1V11C30,6,27.4,2,24,2z M10,18c-1.5,0-2.9-1.6-3.6-4H9c1.2,0,2-1.3,2-3s-0.8-3-2-3H6.4
	C7.1,5.6,8.5,4,10,4c2.2,0,4,3.2,4,7S12.2,18,10,18z"/>
</svg>